<?xml version="1.0" standalone="no"?><!DOCTYPE svg PUBLIC "-//W3C//DTD SVG 1.1//EN"
  "http://www.w3.org/Graphics/SVG/1.1/DTD/svg11.dtd">
<svg t="1579066899569" class="icon" viewBox="0 0 1024 1024" version="1.1" xmlns="http://www.w3.org/2000/svg" p-id="3389"
     width="128" height="128">
  <defs>
    <style type="text/css"></style>
  </defs>
  <path
    d="M921.5 363.1c-4.6-21.1-18.7-46.5-22.2-52.6 2.4-2 3.9-5 3.9-8.4 0-6.1-5-11.1-11.1-11.1s-11.1 5-11.1 11.1 5 11.1 11.1 11.1h0.2c0.1 0.3 0.2 0.6 0.5 0.9 0 0 21 41.5 21.5 90.4 0.5 49 1.5 103.9-50.2 170.6-17.2 22.2-66.4 78.9-170.6 98.2v-2.7s47.2-15.2 76-69.9c11.8-22.4 20.7-46.2 11.3-109.7-1-6.7-18.2-76.6-86-99.1 0.4-1.1 0.6-2.4 0.6-3.6 0-6.1-5-11.1-11.1-11.1s-11.1 5-11.1 11.1 5 11.1 11.1 11.1c2.2 0 4.2-0.6 5.9-1.7 2.7 1.2 38.1 17 51.5 37.9 14 21.7 33.2 46.7 28.5 103.9-2.9 35.3-32.2 92.9-81.9 106.4h-2s-2.4-88.6-8.8-130.3c-7-45.5-17.5-78-39.5-112s-63.4-96.9-187.3-81.4C332.3 337 264.7 481 237.8 537.9c-27 57-49.8 120.5-94.8 139.4-45 18.9-45 19.7-45 21.3 0 1.7-4.4 6.8 9.9 6.8h108.9s7.3-19.1 12.2-40.4 44.7-148.7 78.4-200.2C335.7 421 388 357.5 451.6 347.2c55.4-8.9 126.2 21.3 146.5 50.6 18.7 27 55.7 67.4 58.5 181 0.1 0.9 0.1 1.8 0.2 2.6-0.1-0.8-0.2-1.7-0.2-2.6-0.4-7.1-1.2-14.9-2.7-22.5-4.1-21.5-11.9-40.9-20.9-56.5-0.2-0.5-0.4-0.9-0.7-1.4-1.6-3.2-3.6-6.2-5.7-9.2-2.1-3-4.2-6-6.4-9s-4.5-6-7-8.9c-4.9-5.9-10.2-11.5-15.9-17.1l-1-1-1.2-1.1c-0.8-0.7-1.6-1.5-2.4-2.2-1.5-1.4-3.1-2.7-4.7-4.1-3.2-2.7-6.6-5.3-10.1-7.7-3.5-2.5-7.2-4.8-11-7.1-3.8-2.2-7.7-4.3-11.8-6.3-16.2-7.8-34.4-13.3-53.6-15.4-19.2-2.1-39.6-0.8-59.5 4.5s-39.4 14.6-56.6 27.7c-4.3 3.3-8.5 6.8-12.5 10.5-1 0.9-2 1.9-3 2.8l-1.6 1.5-1.3 1.4c-0.8 0.8-1.9 2-2.9 3-1 1.1-1.9 2.1-2.8 3.2-7.3 8.5-13.7 17.9-18.8 28-10.4 20.3-15.8 43.4-15.4 66.9 0.4 23.4 6.7 47 18.6 67.8 3 5.2 6.3 10.2 9.9 15 3.6 4.8 7.5 9.4 11.7 13.6 8.4 8.7 18.3 16.3 29 22.2 21.5 11.9 46.7 17.1 71.2 14.7 12.3-1.2 24.3-4.2 35.7-8.9 11.4-4.7 22-11.2 31.4-19 9.3-7.8 17.9-17.2 24.3-27.9 6.5-10.6 11-22.3 13.5-34.4 2.5-12.1 2.8-24.5 1.1-36.6-1.7-12.1-5.5-23.8-11.1-34.5s-13-20.5-21.6-28.5c-0.8-0.8-2.2-2-3.4-3-0.6-0.5-1.2-1.1-1.8-1.5l-1.8-1.4c-0.6-0.5-1.2-0.9-1.8-1.4l-1.9-1.3-1.9-1.3-1.9-1.2c-5.1-3.2-10.5-5.9-16.1-8-11.2-4.3-23.1-6.3-34.8-6.2-11.7 0.1-23.3 2.5-34 6.8S421 494.4 412.7 502l-1.5 1.4-0.8 0.7-0.6 0.6-0.3 0.3-1.3 1.3c-0.4 0.5-0.8 0.8-1.3 1.4l-1.5 1.7c-0.5 0.6-1 1.2-1.4 1.7-0.9 1.1-1.8 2.2-2.6 3.4-3.3 4.6-6.1 9.5-8.4 14.7-4.5 10.3-6.9 21.3-7 32.2-0.2 10.9 1.8 21.6 5.7 31.4 3.9 9.8 9.6 18.7 16.5 26.1l1.3 1.4 0.3 0.3 0.5 0.5 0.6 0.6c0.8 0.8 1.4 1.4 2.6 2.4 1.1 0.9 2.1 1.9 3.1 2.6 1 0.8 2 1.6 3.1 2.3 4.2 2.9 8.7 5.4 13.3 7.4 9.2 3.9 19 6.2 28.7 6 4.8-0.1 9.5-0.9 14.1-2 4.5-1.2 8.9-2.7 12.9-4.7 8.2-3.9 15.3-9.2 21-15.3l1.1-1.1c0.5-0.5 0.2-0.3 0.4-0.4l0.2-0.3 0.4-0.5 0.9-1 1.1-1.3 1-1.3 0.9-1.3 0.9-1.3 0.8-1.3c2.2-3.5 4-7.2 5.3-10.9 2.8-7.4 3.9-15.1 3.7-22.3-0.2-7.3-1.7-14.1-4.2-20.2s-5.9-11.5-9.7-16c-3.9-4.5-8.3-8.1-12.9-10.9-2.3-1.3-4.6-2.5-7-3.4-2.3-0.9-4.7-1.6-6.9-2.1-2.3-0.5-4.5-0.8-6.7-1-2.2-0.1-4.2-0.2-6.2 0-8 0.5-14.4 2.9-19.1 5.4-4.7 2.6-7.8 5.3-9.7 7.1l-1.3 1.3c-0.3 0.4-0.6 0.7-0.9 1-0.5 0.5-0.7 0.8-0.7 0.8s0.3-0.2 0.8-0.6c0.3-0.2 0.6-0.5 1-0.8 0.4-0.3 0.9-0.6 1.4-1 1.1-0.8 2.5-1.7 4.2-2.6 1.7-0.9 3.8-1.9 6.1-2.8 4.7-1.7 10.9-3 18-2.4 1.8 0.2 3.6 0.4 5.4 0.8 1.8 0.4 3.7 0.9 5.6 1.7 1.9 0.7 3.7 1.5 5.6 2.6 1.8 1 3.6 2.2 5.3 3.6 3.4 2.7 6.5 6.1 9.1 10.2 2.6 4 4.7 8.6 6 13.5 2.6 9.8 1.7 21.3-3.5 31.2-1.3 2.5-2.8 4.8-4.6 7l-0.7 0.8-0.7 0.8-0.7 0.8-0.7 0.7-0.7 0.7-1 0.9-0.5 0.5-0.2 0.2s-0.3 0.3-0.1 0l-0.9 0.7c-4.6 3.8-9.9 6.9-15.7 8.8-2.9 1-5.9 1.7-9 2.1-3.1 0.4-6.2 0.5-9.3 0.4-3.1-0.1-6.3-0.3-9.5-0.8s-6.3-1.4-9.3-2.7c-3-1.3-5.9-2.9-8.7-4.8-0.7-0.5-1.4-1-2-1.5-0.7-0.5-1.2-1-1.8-1.5-0.5-0.4-1.4-1.2-2.1-2l-0.6-0.5c0.1 0.1 0.1 0.1 0 0l-0.2-0.2-0.9-1c-4.9-5.2-8.8-11.3-11.5-18.2-2.7-6.8-4.1-14.3-4-21.9 0.1-7.6 1.7-15.3 4.9-22.4 1.6-3.6 3.5-7 5.8-10.2l1.8-2.4c0.3-0.4 0.6-0.7 0.9-1.1l0.9-1c0.2-0.3 0.7-0.8 1.1-1.2l1.3-1.3 0.2-0.2 0.2-0.2 0.6-0.5 1.1-1.1c6.1-5.6 13.2-10.2 21-13.4 7.8-3.2 16.4-4.9 25-5 8.6-0.1 17.4 1.4 25.6 4.6 4.1 1.6 8.1 3.5 11.8 5.9l1.4 0.9 1.4 0.9 1.4 0.9c0.5 0.3 0.9 0.7 1.3 1l1.3 1c0.5 0.3 0.8 0.7 1.2 1 0.8 0.7 1.5 1.2 2.5 2.2 3.4 3.2 6.5 6.6 9.3 10.3 2.8 3.7 5.3 7.6 7.4 11.7 4.3 8.2 7.2 17.2 8.5 26.5 1.3 9.3 1.1 18.9-0.8 28.1-1.9 9.3-5.4 18.2-10.3 26.4s-11.3 15.3-18.9 21.6c-7.5 6.3-16 11.4-25 15.2-9 3.8-18.7 6.2-28.5 7.1-19.6 1.9-39.7-2.2-56.8-11.7-8.6-4.7-16.4-10.7-23.2-17.7-3.5-3.5-6.7-7.3-9.7-11.3-3-3.9-5.7-8.1-8.1-12.3-9.8-17.1-15-36.5-15.3-55.8-0.4-19.3 4.2-38.4 12.7-55.1 4.2-8.3 9.5-16.1 15.5-23.1 0.8-0.8 1.5-1.8 2.3-2.5 0.8-0.8 1.4-1.6 2.4-2.5l1.3-1.4 1.1-1.1c0.8-0.8 1.7-1.6 2.5-2.4 3.4-3.2 6.9-6.1 10.6-8.9 14.6-11.1 31-18.9 47.9-23.4s34.1-5.6 50.4-3.8c16.3 1.7 31.7 6.4 45.4 13s25.7 15.3 35.6 24.9c5.1 5 9.9 10.1 14.2 15.2 0.3 0.3 0.5 0.7 0.8 1 27.1 36.7 28.2 72.3 29 75.8 1.3 5.5 6.7 48.6 6.7 78.4v53.6h55.5c15 0 106.9-17.4 173.1-86.1 23.2-24.1 54.5-78.7 59.5-105.7s16.7-78.7 3-141.4z"
    p-id="3390" fill="#d81e06"></path>
</svg>
